<svg width="240" height="36" viewBox="0 0 240 36" fill="none" xmlns="http://www.w3.org/2000/svg">
<path d="M43.95 28V13.12H47.34L47.64 15.64C48.1 14.76 48.76 14.06 49.62 13.54C50.5 13.02 51.53 12.76 52.71 12.76C54.55 12.76 55.98 13.34 57 14.5C58.02 15.66 58.53 17.36 58.53 19.6V28H54.69V19.96C54.69 18.68 54.43 17.7 53.91 17.02C53.39 16.34 52.58 16 51.48 16C50.4 16 49.51 16.38 48.81 17.14C48.13 17.9 47.79 18.96 47.79 20.32V28H43.95ZM70.782 28.36C68.922 28.36 67.482 27.78 66.462 26.62C65.462 25.46 64.962 23.76 64.962 21.52V13.12H68.772V21.16C68.772 22.44 69.032 23.42 69.552 24.1C70.072 24.78 70.892 25.12 72.012 25.12C73.072 25.12 73.942 24.74 74.622 23.98C75.322 23.22 75.672 22.16 75.672 20.8V13.12H79.512V28H76.122L75.822 25.48C75.362 26.36 74.692 27.06 73.812 27.58C72.952 28.1 71.942 28.36 70.782 28.36ZM85.0439 28L90.4439 20.56L85.0439 13.12H89.1539L92.9339 18.4L96.6839 13.12H100.824L95.3939 20.56L100.824 28H96.6839L92.9339 22.72L89.1539 28H85.0439ZM112.9 28C111.34 28 110.09 27.62 109.15 26.86C108.21 26.1 107.74 24.75 107.74 22.81V16.33H105.19V13.12H107.74L108.19 9.13H111.58V13.12H115.6V16.33H111.58V22.84C111.58 23.56 111.73 24.06 112.03 24.34C112.35 24.6 112.89 24.73 113.65 24.73H115.51V28H112.9ZM120.637 31.33L128.137 4.69H131.887L124.357 31.33H120.637Z" fill="white"/>
<path d="M142.654 28.36C141.374 28.36 140.324 28.16 139.504 27.76C138.684 27.34 138.074 26.79 137.674 26.11C137.274 25.43 137.074 24.68 137.074 23.86C137.074 22.48 137.614 21.36 138.694 20.5C139.774 19.64 141.394 19.21 143.554 19.21H147.334V18.85C147.334 17.83 147.044 17.08 146.464 16.6C145.884 16.12 145.164 15.88 144.304 15.88C143.524 15.88 142.844 16.07 142.264 16.45C141.684 16.81 141.324 17.35 141.184 18.07H137.434C137.534 16.99 137.894 16.05 138.514 15.25C139.154 14.45 139.974 13.84 140.974 13.42C141.974 12.98 143.094 12.76 144.334 12.76C146.454 12.76 148.124 13.29 149.344 14.35C150.564 15.41 151.174 16.91 151.174 18.85V28H147.904L147.544 25.6C147.104 26.4 146.484 27.06 145.684 27.58C144.904 28.1 143.894 28.36 142.654 28.36ZM143.524 25.36C144.624 25.36 145.474 25 146.074 24.28C146.694 23.56 147.084 22.67 147.244 21.61H143.974C142.954 21.61 142.224 21.8 141.784 22.18C141.344 22.54 141.124 22.99 141.124 23.53C141.124 24.11 141.344 24.56 141.784 24.88C142.224 25.2 142.804 25.36 143.524 25.36ZM164.679 28.36C163.279 28.36 162.029 28.02 160.929 27.34C159.829 26.66 158.959 25.73 158.319 24.55C157.679 23.37 157.359 22.03 157.359 20.53C157.359 19.03 157.679 17.7 158.319 16.54C158.959 15.36 159.829 14.44 160.929 13.78C162.029 13.1 163.279 12.76 164.679 12.76C165.799 12.76 166.779 12.97 167.619 13.39C168.459 13.81 169.139 14.4 169.659 15.16V6.4H173.499V28H170.079L169.659 25.87C169.179 26.53 168.539 27.11 167.739 27.61C166.959 28.11 165.939 28.36 164.679 28.36ZM165.489 25C166.729 25 167.739 24.59 168.519 23.77C169.319 22.93 169.719 21.86 169.719 20.56C169.719 19.26 169.319 18.2 168.519 17.38C167.739 16.54 166.729 16.12 165.489 16.12C164.269 16.12 163.259 16.53 162.459 17.35C161.659 18.17 161.259 19.23 161.259 20.53C161.259 21.83 161.659 22.9 162.459 23.74C163.259 24.58 164.269 25 165.489 25ZM182.269 34.6L185.719 27.01H184.819L179.029 13.12H183.199L187.369 23.59L191.719 13.12H195.799L186.349 34.6H182.269ZM207.25 28.36C205.75 28.36 204.42 28.04 203.26 27.4C202.1 26.76 201.19 25.86 200.53 24.7C199.87 23.54 199.54 22.2 199.54 20.68C199.54 19.14 199.86 17.77 200.5 16.57C201.16 15.37 202.06 14.44 203.2 13.78C204.36 13.1 205.72 12.76 207.28 12.76C208.74 12.76 210.03 13.08 211.15 13.72C212.27 14.36 213.14 15.24 213.76 16.36C214.4 17.46 214.72 18.69 214.72 20.05C214.72 20.27 214.71 20.5 214.69 20.74C214.69 20.98 214.68 21.23 214.66 21.49H203.35C203.43 22.65 203.83 23.56 204.55 24.22C205.29 24.88 206.18 25.21 207.22 25.21C208 25.21 208.65 25.04 209.17 24.7C209.71 24.34 210.11 23.88 210.37 23.32H214.27C213.99 24.26 213.52 25.12 212.86 25.9C212.22 26.66 211.42 27.26 210.46 27.7C209.52 28.14 208.45 28.36 207.25 28.36ZM207.28 15.88C206.34 15.88 205.51 16.15 204.79 16.69C204.07 17.21 203.61 18.01 203.41 19.09H210.82C210.76 18.11 210.4 17.33 209.74 16.75C209.08 16.17 208.26 15.88 207.28 15.88ZM220.95 28V13.12H224.34L224.64 15.64C225.1 14.76 225.76 14.06 226.62 13.54C227.5 13.02 228.53 12.76 229.71 12.76C231.55 12.76 232.98 13.34 234 14.5C235.02 15.66 235.53 17.36 235.53 19.6V28H231.69V19.96C231.69 18.68 231.43 17.7 230.91 17.02C230.39 16.34 229.58 16 228.48 16C227.4 16 226.51 16.38 225.81 17.14C225.13 17.9 224.79 18.96 224.79 20.32V28H220.95Z" fill="#35B454"/>
<g clip-path="url(#clip0_319:145)">
<path d="M23.9663 3H0.503018V10.5469H15.9221C16.9276 10.5469 17.5979 11.385 17.5979 12.2227V25.4531H14.2463C13.2408 25.4531 12.5705 24.615 12.5705 23.7773V14.2242H6.0338C5.24031 14.2216 4.45415 14.3761 3.72062 14.6787C2.98709 14.9813 2.32069 15.426 1.75983 15.9873C1.19896 16.5486 0.754716 17.2154 0.45269 17.9491C0.150664 18.6829 -0.00317077 19.4692 4.95319e-05 20.2627V26.9672C4.95319e-05 30.3188 2.6813 33 6.0338 33H30.0001V9.03375C30.0001 5.68125 27.3188 3 23.9663 3Z" fill="#35B454"/>
</g>
<defs>
<clipPath id="clip0_319:145">
<rect width="30" height="30" fill="white" transform="translate(0 3)"/>
</clipPath>
</defs>
</svg>
